<svg id="visual" viewBox="0 0 900 600" width="900" height="600" xmlns="http://www.w3.org/2000/svg" xmlns:xlink="http://www.w3.org/1999/xlink" version="1.1"><rect x="0" y="0" width="900" height="600" fill="#001220"></rect><defs><linearGradient id="grad1_0" x1="33.3%" y1="100%" x2="100%" y2="0%"><stop offset="20%" stop-color="#0066ff" stop-opacity="1"></stop><stop offset="80%" stop-color="#0066ff" stop-opacity="1"></stop></linearGradient></defs><defs><linearGradient id="grad1_1" x1="33.3%" y1="100%" x2="100%" y2="0%"><stop offset="20%" stop-color="#0066ff" stop-opacity="1"></stop><stop offset="80%" stop-color="#005ddf" stop-opacity="1"></stop></linearGradient></defs><defs><linearGradient id="grad1_2" x1="33.3%" y1="100%" x2="100%" y2="0%"><stop offset="20%" stop-color="#0052bd" stop-opacity="1"></stop><stop offset="80%" stop-color="#005ddf" stop-opacity="1"></stop></linearGradient></defs><defs><linearGradient id="grad1_3" x1="33.3%" y1="100%" x2="100%" y2="0%"><stop offset="20%" stop-color="#0052bd" stop-opacity="1"></stop><stop offset="80%" stop-color="#00469c" stop-opacity="1"></stop></linearGradient></defs><defs><linearGradient id="grad1_4" x1="33.3%" y1="100%" x2="100%" y2="0%"><stop offset="20%" stop-color="#003a7b" stop-opacity="1"></stop><stop offset="80%" stop-color="#00469c" stop-opacity="1"></stop></linearGradient></defs><defs><linearGradient id="grad1_5" x1="33.3%" y1="100%" x2="100%" y2="0%"><stop offset="20%" stop-color="#003a7b" stop-opacity="1"></stop><stop offset="80%" stop-color="#002d5b" stop-opacity="1"></stop></linearGradient></defs><defs><linearGradient id="grad1_6" x1="33.3%" y1="100%" x2="100%" y2="0%"><stop offset="20%" stop-color="#00203c" stop-opacity="1"></stop><stop offset="80%" stop-color="#002d5b" stop-opacity="1"></stop></linearGradient></defs><defs><linearGradient id="grad1_7" x1="33.3%" y1="100%" x2="100%" y2="0%"><stop offset="20%" stop-color="#00203c" stop-opacity="1"></stop><stop offset="80%" stop-color="#001220" stop-opacity="1"></stop></linearGradient></defs><defs><linearGradient id="grad2_0" x1="0%" y1="100%" x2="66.7%" y2="0%"><stop offset="20%" stop-color="#0066ff" stop-opacity="1"></stop><stop offset="80%" stop-color="#0066ff" stop-opacity="1"></stop></linearGradient></defs><defs><linearGradient id="grad2_1" x1="0%" y1="100%" x2="66.7%" y2="0%"><stop offset="20%" stop-color="#005ddf" stop-opacity="1"></stop><stop offset="80%" stop-color="#0066ff" stop-opacity="1"></stop></linearGradient></defs><defs><linearGradient id="grad2_2" x1="0%" y1="100%" x2="66.7%" y2="0%"><stop offset="20%" stop-color="#005ddf" stop-opacity="1"></stop><stop offset="80%" stop-color="#0052bd" stop-opacity="1"></stop></linearGradient></defs><defs><linearGradient id="grad2_3" x1="0%" y1="100%" x2="66.7%" y2="0%"><stop offset="20%" stop-color="#00469c" stop-opacity="1"></stop><stop offset="80%" stop-color="#0052bd" stop-opacity="1"></stop></linearGradient></defs><defs><linearGradient id="grad2_4" x1="0%" y1="100%" x2="66.7%" y2="0%"><stop offset="20%" stop-color="#00469c" stop-opacity="1"></stop><stop offset="80%" stop-color="#003a7b" stop-opacity="1"></stop></linearGradient></defs><defs><linearGradient id="grad2_5" x1="0%" y1="100%" x2="66.7%" y2="0%"><stop offset="20%" stop-color="#002d5b" stop-opacity="1"></stop><stop offset="80%" stop-color="#003a7b" stop-opacity="1"></stop></linearGradient></defs><defs><linearGradient id="grad2_6" x1="0%" y1="100%" x2="66.7%" y2="0%"><stop offset="20%" stop-color="#002d5b" stop-opacity="1"></stop><stop offset="80%" stop-color="#00203c" stop-opacity="1"></stop></linearGradient></defs><defs><linearGradient id="grad2_7" x1="0%" y1="100%" x2="66.7%" y2="0%"><stop offset="20%" stop-color="#001220" stop-opacity="1"></stop><stop offset="80%" stop-color="#00203c" stop-opacity="1"></stop></linearGradient></defs><g transform="translate(900, 600)"><path d="M-351.5 0C-349.2 -37.5 -346.8 -74.9 -334.3 -108.6C-321.8 -142.3 -299.2 -172.3 -275.9 -200.4C-252.6 -228.6 -228.7 -254.9 -200.4 -275.9C-172.2 -296.9 -139.5 -312.6 -105.4 -324.3C-71.2 -336 -35.6 -343.8 0 -351.5L0 0Z" fill="#00192e"></path><path d="M-307.6 0C-305.5 -32.8 -303.5 -65.6 -292.5 -95.1C-281.6 -124.5 -261.8 -150.8 -241.4 -175.4C-221 -200 -200.1 -223 -175.4 -241.4C-150.6 -259.8 -122.1 -273.5 -92.2 -283.8C-62.3 -294 -31.2 -300.8 0 -307.6L0 0Z" fill="#00264b"></path><path d="M-263.7 0C-261.9 -28.1 -260.1 -56.2 -250.8 -81.5C-241.4 -106.8 -224.4 -129.2 -206.9 -150.3C-189.4 -171.4 -171.5 -191.2 -150.3 -206.9C-129.1 -222.7 -104.6 -234.4 -79 -243.2C-53.4 -252 -26.7 -257.8 0 -263.7L0 0Z" fill="#00336b"></path><path d="M-219.7 0C-218.2 -23.4 -216.8 -46.8 -209 -67.9C-201.1 -89 -187 -107.7 -172.4 -125.3C-157.9 -142.9 -142.9 -159.3 -125.3 -172.4C-107.6 -185.5 -87.2 -195.4 -65.9 -202.7C-44.5 -210 -22.3 -214.9 0 -219.7L0 0Z" fill="#00408b"></path><path d="M-175.8 0C-174.6 -18.7 -173.4 -37.5 -167.2 -54.3C-160.9 -71.2 -149.6 -86.2 -137.9 -100.2C-126.3 -114.3 -114.4 -127.4 -100.2 -137.9C-86.1 -148.4 -69.8 -156.3 -52.7 -162.2C-35.6 -168 -17.8 -171.9 0 -175.8L0 0Z" fill="#004cad"></path><path d="M-131.8 0C-130.9 -14 -130.1 -28.1 -125.4 -40.7C-120.7 -53.4 -112.2 -64.6 -103.5 -75.2C-94.7 -85.7 -85.8 -95.6 -75.2 -103.5C-64.6 -111.3 -52.3 -117.2 -39.5 -121.6C-26.7 -126 -13.4 -128.9 0 -131.8L0 0Z" fill="#0058ce"></path><path d="M-87.9 0C-87.3 -9.4 -86.7 -18.7 -83.6 -27.2C-80.5 -35.6 -74.8 -43.1 -69 -50.1C-63.1 -57.1 -57.2 -63.7 -50.1 -69C-43 -74.2 -34.9 -78.1 -26.3 -81.1C-17.8 -84 -8.9 -85.9 0 -87.9L0 0Z" fill="#0062ef"></path><path d="M-43.9 0C-43.6 -4.7 -43.4 -9.4 -41.8 -13.6C-40.2 -17.8 -37.4 -21.5 -34.5 -25.1C-31.6 -28.6 -28.6 -31.9 -25.1 -34.5C-21.5 -37.1 -17.4 -39.1 -13.2 -40.5C-8.9 -42 -4.5 -43 0 -43.9L0 0Z" fill="#0066ff"></path></g><g transform="translate(0, 0)"><path d="M351.5 0C345.2 35.8 338.8 71.7 328.1 106.6C317.4 141.5 302.4 175.6 280.7 204C259.1 232.3 230.8 255.1 201.6 277.5C172.4 299.9 142.4 322 108.6 334.3C74.9 346.6 37.4 349.1 0 351.5L0 0Z" fill="#00192e"></path><path d="M307.6 0C302 31.4 296.5 62.7 287.1 93.3C277.7 123.9 264.6 153.6 245.6 178.5C226.7 203.3 201.9 223.2 176.4 242.8C150.9 262.4 124.6 281.8 95.1 292.5C65.5 303.3 32.8 305.4 0 307.6L0 0Z" fill="#00264b"></path><path d="M263.7 0C258.9 26.9 254.1 53.8 246.1 80C238.1 106.2 226.8 131.7 210.5 153C194.3 174.3 173.1 191.3 151.2 208.1C129.3 224.9 106.8 241.5 81.5 250.8C56.2 260 28.1 261.8 0 263.7L0 0Z" fill="#00336b"></path><path d="M219.7 0C215.7 22.4 211.8 44.8 205.1 66.6C198.4 88.5 189 109.7 175.5 127.5C161.9 145.2 144.2 159.4 126 173.4C107.8 187.4 89 201.3 67.9 209C46.8 216.6 23.4 218.2 0 219.7L0 0Z" fill="#00408b"></path><path d="M175.8 0C172.6 17.9 169.4 35.8 164.1 53.3C158.7 70.8 151.2 87.8 140.4 102C129.5 116.2 115.4 127.5 100.8 138.7C86.2 150 71.2 161 54.3 167.2C37.4 173.3 18.7 174.5 0 175.8L0 0Z" fill="#004cad"></path><path d="M131.8 0C129.4 13.4 127.1 26.9 123 40C119 53.1 113.4 65.8 105.3 76.5C97.2 87.1 86.5 95.7 75.6 104.1C64.7 112.5 53.4 120.8 40.7 125.4C28.1 130 14 130.9 0 131.8L0 0Z" fill="#0058ce"></path><path d="M87.9 0C86.3 9 84.7 17.9 82 26.7C79.4 35.4 75.6 43.9 70.2 51C64.8 58.1 57.7 63.8 50.4 69.4C43.1 75 35.6 80.5 27.2 83.6C18.7 86.7 9.4 87.3 0 87.9L0 0Z" fill="#0062ef"></path><path d="M43.9 0C43.1 4.5 42.4 9 41 13.3C39.7 17.7 37.8 21.9 35.1 25.5C32.4 29 28.8 31.9 25.2 34.7C21.6 37.5 17.8 40.3 13.6 41.8C9.4 43.3 4.7 43.6 0 43.9L0 0Z" fill="#0066ff"></path></g></svg>